<svg width="546" height="197" viewBox="0 0 546 197" fill="none" xmlns="http://www.w3.org/2000/svg">
<path d="M12.856 74C10.552 74 8.44 73.456 6.52 72.368C4.664 71.216 3.16 69.712 2.008 67.856C0.92 65.936 0.376 63.824 0.376 61.52V17.36C0.376 15.056 0.92 12.976 2.008 11.12C3.16 9.2 4.664 7.696 6.52 6.608C8.44 5.456 10.552 4.88 12.856 4.88H69.304V15.248H14.296C13.272 15.248 12.408 15.6 11.704 16.304C11.064 16.944 10.744 17.776 10.744 18.8V60.08C10.744 61.104 11.064 61.968 11.704 62.672C12.408 63.312 13.272 63.632 14.296 63.632H69.304V74H12.856ZM87.7615 95.312V84.848H121.842C122.482 84.848 123.026 84.592 123.474 84.08C123.986 83.632 124.242 83.088 124.242 82.448V74H90.4495C88.2095 74 86.1295 73.456 84.2095 72.368C82.2895 71.216 80.7535 69.68 79.6015 67.76C78.5135 65.84 77.9695 63.76 77.9695 61.52V18.512H88.3375V61.232C88.3375 61.872 88.5615 62.448 89.0095 62.96C89.5215 63.408 90.0975 63.632 90.7375 63.632H121.842C122.482 63.632 123.026 63.408 123.474 62.96C123.986 62.448 124.242 61.872 124.242 61.232V18.512H134.61V82.832C134.61 85.136 134.034 87.216 132.882 89.072C131.794 90.992 130.29 92.496 128.37 93.584C126.514 94.736 124.434 95.312 122.13 95.312H87.7615ZM144.84 74V0.0799961H155.208V18.32H189C191.304 18.32 193.384 18.896 195.24 20.048C197.16 21.2 198.664 22.704 199.752 24.56C200.904 26.416 201.48 28.496 201.48 30.8V61.52C201.48 63.824 200.904 65.904 199.752 67.76C198.664 69.616 197.16 71.12 195.24 72.272C193.384 73.424 191.304 74 189 74H144.84ZM157.608 63.632H188.712C189.352 63.632 189.896 63.408 190.344 62.96C190.856 62.448 191.112 61.872 191.112 61.232V31.088C191.112 30.448 190.856 29.904 190.344 29.456C189.896 28.944 189.352 28.688 188.712 28.688H157.608C156.968 28.688 156.392 28.944 155.88 29.456C155.432 29.904 155.208 30.448 155.208 31.088V61.232C155.208 61.872 155.432 62.448 155.88 62.96C156.392 63.408 156.968 63.632 157.608 63.632ZM221.064 74C218.76 74 216.68 73.424 214.824 72.272C212.968 71.12 211.464 69.616 210.312 67.76C209.16 65.904 208.584 63.824 208.584 61.52V30.8C208.584 28.496 209.16 26.416 210.312 24.56C211.464 22.704 212.968 21.2 214.824 20.048C216.68 18.896 218.76 18.32 221.064 18.32H252.744C255.048 18.32 257.128 18.896 258.984 20.048C260.904 21.136 262.408 22.64 263.496 24.56C264.648 26.48 265.224 28.56 265.224 30.8V51.344H218.952V61.232C218.952 61.872 219.176 62.448 219.624 62.96C220.136 63.408 220.712 63.632 221.352 63.632H265.224V74H221.064ZM218.952 41.648H254.76V31.088C254.76 30.448 254.536 29.904 254.088 29.456C253.64 28.944 253.096 28.688 252.456 28.688H221.352C220.712 28.688 220.136 28.944 219.624 29.456C219.176 29.904 218.952 30.448 218.952 31.088V41.648ZM274.586 74V30.8C274.586 28.496 275.162 26.416 276.314 24.56C277.466 22.704 278.97 21.2 280.826 20.048C282.746 18.896 284.826 18.32 287.066 18.32H318.17V28.688H287.354C286.714 28.688 286.138 28.944 285.626 29.456C285.178 29.904 284.954 30.448 284.954 31.088V74H274.586ZM76.459 174C73.835 174 71.435 173.36 69.259 172.08C67.147 170.8 65.451 169.104 64.171 166.992C62.891 164.816 62.251 162.416 62.251 159.792V119.088C62.251 116.464 62.891 114.096 64.171 111.984C65.451 109.808 67.147 108.08 69.259 106.8C71.435 105.52 73.835 104.88 76.459 104.88H131.179V119.856H80.299C79.275 119.856 78.475 120.112 77.899 120.624C77.387 121.136 77.131 121.936 77.131 123.024V155.856C77.131 156.88 77.387 157.68 77.899 158.256C78.475 158.768 79.275 159.024 80.299 159.024H131.179V174H76.459ZM154.629 174C152.133 174 149.829 173.36 147.717 172.08C145.605 170.8 143.909 169.104 142.629 166.992C141.349 164.88 140.709 162.576 140.709 160.08V132.24C140.709 129.744 141.349 127.44 142.629 125.328C143.909 123.216 145.605 121.52 147.717 120.24C149.829 118.96 152.133 118.32 154.629 118.32H183.237C185.797 118.32 188.133 118.96 190.245 120.24C192.357 121.52 194.021 123.216 195.237 125.328C196.517 127.44 197.157 129.744 197.157 132.24V160.08C197.157 162.576 196.517 164.88 195.237 166.992C194.021 169.104 192.357 170.8 190.245 172.08C188.133 173.36 185.797 174 183.237 174H154.629ZM155.397 159.312H182.469V133.008H155.397V159.312ZM207.465 174V118.32H274.473C277.033 118.32 279.369 118.96 281.481 120.24C283.593 121.52 285.257 123.216 286.473 125.328C287.753 127.44 288.393 129.744 288.393 132.24V174H273.801V133.008H255.369V174H240.585V133.008H222.153V174H207.465ZM295.872 196.08V118.32H338.4C340.96 118.32 343.296 118.96 345.408 120.24C347.52 121.52 349.184 123.216 350.4 125.328C351.68 127.44 352.32 129.744 352.32 132.24V160.08C352.32 162.576 351.68 164.88 350.4 166.992C349.184 169.104 347.52 170.8 345.408 172.08C343.296 173.36 340.96 174 338.4 174H310.56V196.08H295.872ZM310.56 159.312H337.632V133.008H310.56V159.312ZM373.35 174C370.79 174 368.454 173.36 366.342 172.08C364.23 170.8 362.534 169.104 361.254 166.992C360.038 164.88 359.43 162.576 359.43 160.08V138.768H401.19V133.008H359.43V118.32H401.958C404.518 118.32 406.854 118.96 408.966 120.24C411.078 121.52 412.742 123.216 413.958 125.328C415.238 127.44 415.878 129.744 415.878 132.24V174H373.35ZM374.118 159.312H401.19V151.632H374.118V159.312ZM437.466 174C434.97 174 432.666 173.36 430.554 172.08C428.442 170.8 426.746 169.104 425.466 166.992C424.186 164.88 423.546 162.576 423.546 160.08V157.296H438.234V159.312H465.306V153.552H437.466C434.97 153.552 432.666 152.912 430.554 151.632C428.442 150.352 426.746 148.656 425.466 146.544C424.186 144.432 423.546 142.128 423.546 139.632V132.24C423.546 129.744 424.186 127.44 425.466 125.328C426.746 123.216 428.442 121.52 430.554 120.24C432.666 118.96 434.97 118.32 437.466 118.32H466.074C468.634 118.32 470.97 118.96 473.082 120.24C475.194 121.52 476.89 123.216 478.17 125.328C479.45 127.44 480.09 129.744 480.09 132.24V135.024H465.306V133.008H438.234V138.768H466.074C468.634 138.768 470.97 139.408 473.082 140.688C475.194 141.968 476.89 143.664 478.17 145.776C479.45 147.888 480.09 150.192 480.09 152.688V160.08C480.09 162.576 479.45 164.88 478.17 166.992C476.89 169.104 475.194 170.8 473.082 172.08C470.97 173.36 468.634 174 466.074 174H437.466ZM503.278 174C500.782 174 498.478 173.36 496.366 172.08C494.254 170.8 492.558 169.104 491.278 166.992C489.998 164.88 489.358 162.576 489.358 160.08V157.296H504.046V159.312H531.118V153.552H503.278C500.782 153.552 498.478 152.912 496.366 151.632C494.254 150.352 492.558 148.656 491.278 146.544C489.998 144.432 489.358 142.128 489.358 139.632V132.24C489.358 129.744 489.998 127.44 491.278 125.328C492.558 123.216 494.254 121.52 496.366 120.24C498.478 118.96 500.782 118.32 503.278 118.32H531.886C534.446 118.32 536.782 118.96 538.894 120.24C541.006 121.52 542.702 123.216 543.982 125.328C545.262 127.44 545.902 129.744 545.902 132.24V135.024H531.118V133.008H504.046V138.768H531.886C534.446 138.768 536.782 139.408 538.894 140.688C541.006 141.968 542.702 143.664 543.982 145.776C545.262 147.888 545.902 150.192 545.902 152.688V160.08C545.902 162.576 545.262 164.88 543.982 166.992C542.702 169.104 541.006 170.8 538.894 172.08C536.782 173.36 534.446 174 531.886 174H503.278Z" fill="black"/>
</svg>
